#N canvas 0 100 1512 851 10;
#X text 35 32 Hello world!;
#X text 35 42 ============;
#X text 215 22 ............................;
#X text 215 32 . ____ ._____ _ .......___ .;
#X text 215 42 .| __ )| ____| |....../ _ |.;
#X text 215 62 .| |_) | |___| |___ / ___ |.;
#X text 215 72 .|____/|_____|_____/_/..._|.io;
#X text 215 82 ............................;
#X text 215 52 .| __ || __|.| |...../ _| |.;
#X obj 49 204 adc~ 1 2;
#X obj 45 707 dac~ 1 2;
#X floatatom 114 236 5 0 5 0 - - - 0;
#X obj 116 190 hsl 128 15 0 2 0 0 empty empty empty -2 -8 0 10 #fcfcfc
#000000 #000000 0 1;
#X msg 232 452 clear;
#X text 280 452 or clear memory (same as 'set 0 0').;
#X obj 162 127 loadbang;
#X obj 53 387 *~ 1;
#X text 464 48 y(n) = ff1 * w(n) + ff2 * w(n-1) + ff3 * w(n-2);
#X text 464 65 w(n) = x(n) + fb1 * w(n-1) + fb2 * w(n-2);
#X text 463 25 Biquad~ calculates the following difference equation:
;
#X msg 34 144 \; pd dsp \$1;
#X obj 34 119 tgl 15 0 empty empty empty 17 7 0 10 #fcfcfc #000000
#000000 0 1;
#X text 57 118 DSP on/off;
#X obj 123 707 dac~ 27 28 29 30;
#X obj 217 521 env~;
#X floatatom 217 557 5 0 0 0 - - - 0;
#X text 133 740 Plotter;
#X text 57 739 Salidas;
#X obj 198 490 biquad~;
#X text 200 382 Lowpass Fc: 500 \, Q: 0.5 \, Gain: 12 \, SR: 44100
;
#X text 220 288 Highpass Fc: 500 \, Q: 0.5 \, Gain: 12 \, SR: 44100
;
#X msg 213 314 0.932368 -1.86474 0.932368 -1.86237 0.867104;
#X msg 200 401 0.00118391 0.00236781 0.00118391 -1.86237 0.867104;
#X text 462 92 The filter's coefficients syntax (set via arguments
or list input) is: fb1 fb2 ff1 ff2 ff3 El equivalente de esto en la
notación convenconal es: ff = a y fb = b, f 54;
#X msg 520 313 -0.144017 -0.854715 4.08068 -1.73518 -2.34424;
#X msg 528 401 -0.424546 -0.575143 2.94151 -0.422834 -2.51494;
#X msg 353 659 clear;
#X text 394 723 this biquad~ is a notch filter for;
#X text 390 740 fn = Pi/4 (= SR/8 = 5512.5Hz @44.1k);
#X text 401 659 or clear memory (same as 'set 0 0').;
#X obj 338 728 env~;
#X floatatom 338 764 5 0 0 0 - - - 0;
#X obj 319 697 biquad~;
#X text 321 589 Lowpass Fc: 500 \, Q: 0.5 \, Gain: 12 \, SR: 44100
;
#X text 341 495 Highpass Fc: 500 \, Q: 0.5 \, Gain: 12 \, SR: 44100
;
#X msg 334 521 0.932368 -1.86474 0.932368 -1.86237 0.867104;
#X msg 321 608 0.00118391 0.00236781 0.00118391 -1.86237 0.867104;
#X msg 664 491 -0.144017 -0.854715 4.08068 -1.73518 -2.34424;
#X msg 672 579 -0.424546 -0.575143 2.94151 -0.422834 -2.51494;
#X msg 162 158 7;
#X connect 9 0 16 0;
#X connect 9 1 16 0;
#X connect 11 0 16 1;
#X connect 12 0 11 0;
#X connect 13 0 28 0;
#X connect 15 0 49 0;
#X connect 15 0 34 0;
#X connect 15 0 48 0;
#X connect 16 0 28 0;
#X connect 16 0 23 0;
#X connect 16 0 42 0;
#X connect 16 0 10 0;
#X connect 16 0 10 1;
#X connect 21 0 20 0;
#X connect 24 0 25 0;
#X connect 28 0 24 0;
#X connect 28 0 23 1;
#X connect 31 0 28 0;
#X connect 32 0 28 0;
#X connect 34 0 28 0;
#X connect 35 0 28 0;
#X connect 36 0 42 0;
#X connect 40 0 41 0;
#X connect 42 0 40 0;
#X connect 42 0 23 2;
#X connect 45 0 42 0;
#X connect 46 0 42 0;
#X connect 47 0 42 0;
#X connect 48 0 42 0;
#X connect 49 0 11 0;
