#N canvas 402 156 984 823 10;
#X text 35 32 Hello world!;
#X text 35 42 ============;
#X text 215 22 ............................;
#X text 215 32 . ____ ._____ _ .......___ .;
#X text 215 42 .| __ )| ____| |....../ _ |.;
#X text 215 62 .| |_) | |___| |___ / ___ |.;
#X text 215 72 .|____/|_____|_____/_/..._|.io;
#X text 215 82 ............................;
#X text 215 52 .| __ || __|.| |...../ _| |.;
#X obj 188 178 adc~ 1 2;
#X obj 94 733 dac~ 1 2;
#X floatatom 264 187 5 0 5 0 - - - 0;
#X obj 274 141 hsl 128 15 0 2 0 0 empty empty empty -2 -8 0 10 #fcfcfc
#000000 #000000 0 1;
#X obj 450 314 biquad~ 1.41407 -0.9998 1 -1.41421 1;
#X msg 496 310 clear;
#X text 537 374 this biquad~ is a notch filter for;
#X text 533 391 fn = Pi/4 (= SR/8 = 5512.5Hz @44.1k);
#X text 544 310 or clear memory (same as 'set 0 0').;
#X obj 424 124 loadbang;
#X obj 187 236 *~ 1;
#X obj 232 237 *~ 1;
#X text 464 48 y(n) = ff1 * w(n) + ff2 * w(n-1) + ff3 * w(n-2);
#X text 464 65 w(n) = x(n) + fb1 * w(n-1) + fb2 * w(n-2);
#X text 463 25 Biquad~ calculates the following difference equation:
;
#X text 462 92 The filter's coefficients syntax (set via arguments
or list input) is: fb1 fb2 ff1 ff2 ff3, f 54;
#X text 462 210 Lowshelf;
#X text 534 187 Highshelf;
#X msg 34 144 \; pd dsp \$1;
#X obj 34 119 tgl 15 0 empty empty empty 17 7 0 10 #fcfcfc #000000
#000000 0 1;
#X text 57 118 DSP on/off;
#X msg 420 262 0.4786 -0.2202 0.1001 0.4008 0.2001;
#X msg 424 155 20;
#X obj 610 610 biquad~ 1.41407 -0.9998 1 -1.41421 1;
#X msg 644 572 clear;
#X text 685 636 this biquad~ is a notch filter for;
#X text 681 653 fn = Pi/4 (= SR/8 = 5512.5Hz @44.1k);
#X text 692 572 or clear memory (same as 'set 0 0').;
#X text 610 472 Lowshelf;
#X text 682 449 Highshelf;
#X msg 610 532 0.4786 -0.2202 0.1001 0.4008 0.2001;
#X obj 285 746 dac~ 27 28 29 30;
#X floatatom 470 408 5 0 0 0 - - - 0;
#X obj 470 383 env~;
#X floatatom 609 674 5 0 0 0 - - - 0;
#X obj 609 649 env~;
#X msg 536 210 2.025 -0.893 0.417 0.356 0.194;
#X msg 684 472 5.088 -7.0667 0.194 -0.4605 0.2093;
#X obj 59 262 noise~;
#X connect 9 0 19 0;
#X connect 9 1 20 0;
#X connect 11 0 19 1;
#X connect 11 0 20 1;
#X connect 12 0 11 0;
#X connect 13 0 10 0;
#X connect 13 0 40 0;
#X connect 13 0 42 0;
#X connect 13 0 10 1;
#X connect 14 0 13 0;
#X connect 18 0 31 0;
#X connect 18 0 30 0;
#X connect 18 0 39 0;
#X connect 19 0 13 0;
#X connect 20 0 32 0;
#X connect 28 0 27 0;
#X connect 30 0 13 0;
#X connect 31 0 11 0;
#X connect 32 0 10 1;
#X connect 32 0 40 1;
#X connect 32 0 44 0;
#X connect 32 0 10 0;
#X connect 33 0 32 0;
#X connect 39 0 32 0;
#X connect 42 0 41 0;
#X connect 44 0 43 0;
#X connect 45 0 13 0;
#X connect 46 0 32 0;
