#N canvas 603 85 618 387 10;
#X obj 142 109 cartopol~;
#X obj 142 65 inlet~;
#X obj 193 65 inlet~;
#X obj 342 109 cartopol~;
#X obj 342 65 inlet~;
#X obj 393 65 inlet~;
#X obj 250 211 /~;
#X obj 301 211 -~;
#X obj 250 312 outlet~;
#X obj 301 312 outlet~;
#X text 430 284 .mmb;
#X obj 250 266 pol2cart~;
#X connect 0 0 6 0;
#X connect 0 1 7 0;
#X connect 1 0 0 0;
#X connect 2 0 0 1;
#X connect 3 0 6 1;
#X connect 3 1 7 1;
#X connect 4 0 3 0;
#X connect 5 0 3 1;
#X connect 6 0 11 0;
#X connect 7 0 11 1;
#X connect 11 0 8 0;
#X connect 11 1 9 0;
