#N canvas 0 38 1512 861 10;
#X text 35 32 Hello world!;
#X text 35 42 ============;
#X text 215 22 ............................;
#X text 215 32 . ____ ._____ _ .......___ .;
#X text 215 42 .| __ )| ____| |....../ _ |.;
#X text 215 62 .| |_) | |___| |___ / ___ |.;
#X text 215 72 .|____/|_____|_____/_/..._|.io;
#X text 215 82 ............................;
#X text 215 52 .| __ || __|.| |...../ _| |.;
#X obj 49 204 adc~ 1 2;
#X obj 57 687 dac~ 1 2;
#X floatatom 114 236 5 0 5 0 - - - 0;
#X obj 129 190 hsl 128 15 0 2 0 0 empty empty empty -2 -8 0 10 #fcfcfc
#000000 #000000 0 1;
#X obj 162 127 loadbang;
#X obj 53 387 *~ 1;
#X text 464 48 y(n) = ff1 * w(n) + ff2 * w(n-1) + ff3 * w(n-2);
#X text 464 65 w(n) = x(n) + fb1 * w(n-1) + fb2 * w(n-2);
#X text 463 25 Biquad~ calculates the following difference equation:
;
#X msg 34 144 \; pd dsp \$1;
#X obj 34 119 tgl 15 0 empty empty empty 17 7 0 10 #fcfcfc #000000
#000000 0 1;
#X text 57 118 DSP on/off;
#X obj 126 761 dac~ 27 28 29 30;
#X text 136 794 Plotter;
#X text 57 739 Salidas;
#X obj 395 733 metro 100;
#X obj 396 695 tgl 15 0 empty empty empty 17 7 0 10 #fcfcfc #000000
#000000 0 1;
#X obj 322 761 tabwrite~ signal;
#N canvas 0 22 450 278 (subpatch) 0;
#X array signal 100 float 3;
#A 0 0 0 0 0 0 0 0 0 0 0 0 0 0 0 0 0 0 0 0 0 0 0 0 0 0 0 0 0 0 0 0
0 0 0 0 0 0 0 0 0 0 0 0 0 0 0 0 0 0 0 0 0 0 0 0 0 0 0 0 0 0 0 0 0 0
0 0 0 0 0 0 0 0 0 0 0 0 0 0 0 0 0 0 0 0 0 0 0 0 0 0 0 0 0 0 0 0 0 0
0;
#X coords 0 1 100 -1 200 140 1;
#X restore 583 629 graph;
#X text 482 211 comment;
#X text 462 92 The filter's coefficients syntax (set via arguments
or list input) is: fb1 fb2 ff1 ff2 ff3 El equivalente de esto en la
notación convenconal es: ff = a y fb = b Entonces la disposición
de los coheficientes queda así: b1 \, b2 \, a1 \, a2 \, a3 y en la
notacion convencional sería a0 a1 b0 b1 b2, f 54;
#X obj 59 480 lop~;
#X floatatom 125 388 5 0 5 0 - - - 0;
#X msg 173 310 500;
#X msg 162 158 5;
#X connect 9 0 14 0;
#X connect 9 1 14 0;
#X connect 11 0 14 1;
#X connect 12 0 11 0;
#X connect 13 0 33 0;
#X connect 13 0 32 0;
#X connect 14 0 30 0;
#X connect 19 0 18 0;
#X connect 24 0 26 0;
#X connect 25 0 24 0;
#X connect 30 0 10 0;
#X connect 30 0 10 1;
#X connect 31 0 30 1;
#X connect 32 0 31 0;
#X connect 33 0 11 0;
